<mxfile host="app.diagrams.net" modified="2022-07-10T06:59:34.385Z" agent="5.0 (Windows NT 10.0; Win64; x64) AppleWebKit/537.36 (KHTML, like Gecko) Chrome/103.0.0.0 Safari/537.36" etag="2UN42M12nHKVtgRJ0nF4" version="20.0.4" type="github">
  <diagram id="e0TtXNntNFdvGE5RzgB5" name="Page-1">
    <mxGraphModel dx="782" dy="428" grid="1" gridSize="10" guides="1" tooltips="1" connect="1" arrows="1" fold="1" page="1" pageScale="1" pageWidth="827" pageHeight="1169" math="0" shadow="0">
      <root>
        <mxCell id="0" />
        <mxCell id="1" parent="0" />
        <mxCell id="rFzw1P7dX0fG_H2Q5RED-1" value="keystore" style="swimlane;fontStyle=0;childLayout=stackLayout;horizontal=1;startSize=26;fillColor=none;horizontalStack=0;resizeParent=1;resizeParentMax=0;resizeLast=0;collapsible=1;marginBottom=0;" vertex="1" parent="1">
          <mxGeometry x="380" y="110" width="222" height="156" as="geometry" />
        </mxCell>
        <mxCell id="rFzw1P7dX0fG_H2Q5RED-2" value="public_keys[0]" style="text;strokeColor=none;fillColor=none;align=left;verticalAlign=top;spacingLeft=4;spacingRight=4;overflow=hidden;rotatable=0;points=[[0,0.5],[1,0.5]];portConstraint=eastwest;" vertex="1" parent="rFzw1P7dX0fG_H2Q5RED-1">
          <mxGeometry y="26" width="222" height="26" as="geometry" />
        </mxCell>
        <mxCell id="rFzw1P7dX0fG_H2Q5RED-3" value="public_keys[1]" style="text;strokeColor=none;fillColor=none;align=left;verticalAlign=top;spacingLeft=4;spacingRight=4;overflow=hidden;rotatable=0;points=[[0,0.5],[1,0.5]];portConstraint=eastwest;" vertex="1" parent="rFzw1P7dX0fG_H2Q5RED-1">
          <mxGeometry y="52" width="222" height="26" as="geometry" />
        </mxCell>
        <mxCell id="rFzw1P7dX0fG_H2Q5RED-4" value="public_keys[2]&#xa;" style="text;strokeColor=none;fillColor=none;align=left;verticalAlign=top;spacingLeft=4;spacingRight=4;overflow=hidden;rotatable=0;points=[[0,0.5],[1,0.5]];portConstraint=eastwest;" vertex="1" parent="rFzw1P7dX0fG_H2Q5RED-1">
          <mxGeometry y="78" width="222" height="26" as="geometry" />
        </mxCell>
        <mxCell id="rFzw1P7dX0fG_H2Q5RED-10" value="public_keys[3]&#xa;" style="text;strokeColor=none;fillColor=none;align=left;verticalAlign=top;spacingLeft=4;spacingRight=4;overflow=hidden;rotatable=0;points=[[0,0.5],[1,0.5]];portConstraint=eastwest;" vertex="1" parent="rFzw1P7dX0fG_H2Q5RED-1">
          <mxGeometry y="104" width="222" height="26" as="geometry" />
        </mxCell>
        <mxCell id="rFzw1P7dX0fG_H2Q5RED-11" value="..." style="text;strokeColor=none;fillColor=none;align=left;verticalAlign=top;spacingLeft=4;spacingRight=4;overflow=hidden;rotatable=0;points=[[0,0.5],[1,0.5]];portConstraint=eastwest;" vertex="1" parent="rFzw1P7dX0fG_H2Q5RED-1">
          <mxGeometry y="130" width="222" height="26" as="geometry" />
        </mxCell>
        <mxCell id="rFzw1P7dX0fG_H2Q5RED-12" value="" style="shape=note;whiteSpace=wrap;html=1;backgroundOutline=1;darkOpacity=0.05;" vertex="1" parent="1">
          <mxGeometry x="140" y="40" width="70" height="80" as="geometry" />
        </mxCell>
        <mxCell id="rFzw1P7dX0fG_H2Q5RED-13" value="" style="shape=note;whiteSpace=wrap;html=1;backgroundOutline=1;darkOpacity=0.05;" vertex="1" parent="1">
          <mxGeometry x="140" y="140" width="70" height="80" as="geometry" />
        </mxCell>
        <mxCell id="rFzw1P7dX0fG_H2Q5RED-14" value="" style="shape=note;whiteSpace=wrap;html=1;backgroundOutline=1;darkOpacity=0.05;" vertex="1" parent="1">
          <mxGeometry x="140" y="240" width="70" height="80" as="geometry" />
        </mxCell>
      </root>
    </mxGraphModel>
  </diagram>
</mxfile>
